<svg width="50" height="50" viewBox="0 0 50 50" fill="none" xmlns="http://www.w3.org/2000/svg">
<rect width="50" height="50" rx="14.2857" fill="#FF7622"/>
<path d="M17.34 20.25C17.25 16.65 19.77 13.77 24.51 13.77C28.68 13.77 31.59 16.02 31.59 20.19C31.59 24.06 28.8 26.16 24.87 26.19L24.72 28.44H20.22L20.07 22.86H21.87C24.69 22.86 26.64 22.35 26.61 20.16C26.61 18.81 25.77 17.97 24.45 17.97C22.98 17.97 22.17 18.87 22.17 20.25H17.34ZM25.56 33.48C25.56 35.01 24.33 36.24 22.53 36.24C20.7 36.24 19.47 35.01 19.47 33.48C19.47 31.89 20.7 30.66 22.53 30.66C24.33 30.66 25.56 31.89 25.56 33.48Z" fill="white"/>
</svg>
